<?xml version="1.0" encoding="UTF-8"?>
<svg version="1.1" xmlns="http://www.w3.org/2000/svg" width="512" height="522">
<path d="M0 0 C3.91072436 2.95863702 7.57390941 6.13144127 11.21875 9.40869141 C13.70086145 11.62612595 16.22749982 13.79023537 18.75170898 15.95947266 C24.52466342 20.9264414 30.2302014 25.95953497 35.8515625 31.09765625 C36.56054688 31.72542969 37.26953125 32.35320312 38 33 C39.12728516 34.11375 39.12728516 34.11375 40.27734375 35.25 C43.9223927 37.59287221 46.78997779 37.31395126 50.9375 36.9375 C52.17669189 36.85375122 52.17669189 36.85375122 53.44091797 36.76831055 C58.9391015 36.37914779 64.42827598 35.87631538 69.91914368 35.39640808 C73.30124681 35.10308168 76.68409746 34.81879895 80.06692505 34.53396606 C82.58622882 34.31585663 85.10334996 34.07947287 87.62084961 33.84155273 C98.8480244 32.83415512 108.46818093 32.2695881 117.96484375 39.25390625 C131.05786169 50.48726329 132.26618594 71.6409893 135.64550781 87.61352539 C136.2713433 90.55917826 136.91551372 93.50033758 137.5625 96.44140625 C137.84081665 97.79293541 137.84081665 97.79293541 138.12475586 99.17176819 C139.59655814 105.77264448 141.41400604 108.32294846 147.16943359 112.05541992 C148.40889415 112.78647284 149.65212815 113.5111539 150.8984375 114.23046875 C151.90555283 114.82254875 151.90555283 114.82254875 152.93301392 115.42658997 C155.07701359 116.68601418 157.22562114 117.93728199 159.375 119.1875 C194.91302607 139.93236158 194.91302607 139.93236158 199.296875 152.28515625 C202.20691613 163.52114838 198.40157028 172.77717264 194 183 C193.50113281 184.16708496 193.00226563 185.33416992 192.48828125 186.53662109 C189.17623874 194.27615163 185.8213949 201.99642381 182.4387207 209.70532227 C181.96394287 210.79256592 181.48916504 211.87980957 181 213 C180.70821869 213.59279755 180.41643738 214.18559509 180.11581421 214.7963562 C178.22680681 218.76414868 177.86826207 220.80980124 179 225 C179.60062642 226.62312989 180.24827832 228.22937556 180.93359375 229.81860352 C181.33070557 230.74629044 181.72781738 231.67397736 182.13696289 232.629776 C182.56614014 233.61948898 182.99531738 234.60920197 183.4375 235.62890625 C184.09770142 237.16888527 184.09770142 237.16888527 184.77124023 238.73997498 C186.17629215 242.01612027 187.58763716 245.28950054 189 248.5625 C190.41173511 251.83933034 191.82204683 255.11674707 193.22875977 258.39573669 C194.10376957 260.43487352 194.98176279 262.47273327 195.86303711 264.50917053 C196.26014893 265.43370529 196.65726074 266.35824005 197.06640625 267.31079102 C197.41646729 268.1217775 197.76652832 268.93276398 198.12719727 269.76832581 C201.43201072 278.21842181 200.88546601 287.11376521 197.55859375 295.453125 C192.03721595 304.47552681 184.68898437 309.03660167 175.7064209 314.15100098 C173.53355776 315.39152359 171.37540629 316.65468579 169.21972656 317.92480469 C163.36164742 321.36854125 157.50058972 324.77490698 151.48046875 327.9296875 C150.37046509 328.53997803 150.37046509 328.53997803 149.23803711 329.16259766 C147.43322117 330.14978299 145.60063853 331.0857751 143.765625 332.015625 C138.76329572 336.07819832 138.28451272 344.00457714 137 350 C136.64572198 351.57190495 136.28938359 353.14334673 135.93115234 354.71435547 C134.59576191 360.6060954 133.27687964 366.50167906 132.00268555 372.40698242 C126.43905443 398.10265281 126.43905443 398.10265281 115 406 C106.33124601 410.81597444 96.85147111 410.18029277 87.27734375 409.22265625 C86.29182022 409.13245712 85.30629669 409.042258 84.29090881 408.94932556 C81.17219774 408.66263397 78.05487085 408.36338586 74.9375 408.0625 C71.81642614 407.76708375 68.69513868 407.47447214 65.57337952 407.18638611 C63.64067881 407.00744753 61.70837888 406.82410335 59.77659607 406.63551331 C49.5273373 405.13278465 49.5273373 405.13278465 40.1015625 407.87109375 C38.87566406 409.14146484 38.87566406 409.14146484 37.625 410.4375 C34.05144096 413.97626778 30.50206626 417.30852075 26.5625 420.4375 C22.55007918 423.6679839 18.75427497 427.04275388 15 430.5625 C4.67285998 440.16188295 -4.42900476 447.83861122 -18.99609375 447.328125 C-29.98265765 446.12803219 -37.1584792 439.13792207 -45 432 C-46.31871094 430.81083984 -46.31871094 430.81083984 -47.6640625 429.59765625 C-49.29018578 428.12898301 -50.91393187 426.65767296 -52.53515625 425.18359375 C-56.05095046 422.06896782 -59.68918009 419.12333433 -63.3828125 416.22265625 C-66 414 -66 414 -67.9921875 411.62109375 C-71.28208513 407.82251717 -73.59393669 406.14509377 -78.671875 405.62109375 C-82.9457412 405.70455451 -87.17932068 406.15797496 -91.42626953 406.62207031 C-98.29518082 407.34847246 -105.17919638 407.90426413 -112.06289673 408.47006226 C-114.58416124 408.68403414 -117.10274989 408.91926568 -119.62182617 409.1574707 C-130.84844368 410.16697398 -140.46873671 410.73000316 -149.96484375 403.74609375 C-163.05786169 392.51273671 -164.26618594 371.3590107 -167.64550781 355.38647461 C-168.2713433 352.44082174 -168.91551372 349.49966242 -169.5625 346.55859375 C-169.74804443 345.65757431 -169.93358887 344.75655487 -170.12475586 343.82823181 C-171.59655814 337.22735552 -173.41400604 334.67705154 -179.16943359 330.94458008 C-180.40889415 330.21352716 -181.65212815 329.4888461 -182.8984375 328.76953125 C-183.56984772 328.37481125 -184.24125793 327.98009125 -184.93301392 327.57341003 C-187.07701359 326.31398582 -189.22562114 325.06271801 -191.375 323.8125 C-226.91302607 303.06763842 -226.91302607 303.06763842 -231.296875 290.71484375 C-234.20691613 279.47885162 -230.40157028 270.22282736 -226 260 C-225.50113281 258.83291504 -225.00226563 257.66583008 -224.48828125 256.46337891 C-221.17623874 248.72384837 -217.8213949 241.00357619 -214.4387207 233.29467773 C-213.72655396 231.66381226 -213.72655396 231.66381226 -213 230 C-212.70821869 229.40720245 -212.41643738 228.81440491 -212.11581421 228.2036438 C-210.25172253 224.28818592 -209.55973545 222.10726494 -211 218 C-212.15372634 215.01673642 -213.40063577 212.08164741 -214.67578125 209.1484375 C-215.04221237 208.29375885 -215.40864349 207.4390802 -215.78617859 206.5585022 C-216.95708515 203.82869268 -218.13426064 201.10165169 -219.3125 198.375 C-234.87493139 162.29390778 -234.87493139 162.29390778 -230.4375 149.75 C-226.25147712 139.25703598 -217.01780846 134.1506208 -207.7064209 128.84899902 C-205.53355776 127.60847641 -203.37540629 126.34531421 -201.21972656 125.07519531 C-195.36164742 121.63145875 -189.50058972 118.22509302 -183.48046875 115.0703125 C-182.74046631 114.66345215 -182.00046387 114.2565918 -181.23803711 113.83740234 C-179.43322117 112.85021701 -177.60063853 111.9142249 -175.765625 110.984375 C-170.76329572 106.92180168 -170.28451272 98.99542286 -169 93 C-168.64572198 91.42809505 -168.28938359 89.85665327 -167.93115234 88.28564453 C-166.59576191 82.3939046 -165.27687964 76.49832094 -164.00268555 70.59301758 C-158.43905443 44.89734719 -158.43905443 44.89734719 -147 37 C-138.25564815 32.14202675 -128.6787613 32.83697509 -119.0234375 33.77734375 C-117.50830063 33.91264244 -117.50830063 33.91264244 -115.96255493 34.05067444 C-112.76582892 34.3374706 -109.5704407 34.6367498 -106.375 34.9375 C-103.17227631 35.23262742 -99.96934086 35.52502058 -96.76602173 35.81361389 C-94.78221359 35.99298277 -92.79876357 36.17637475 -90.81576538 36.36448669 C-81.08917936 37.77803856 -81.08917936 37.77803856 -72.19921875 35.12890625 C-71.37035156 34.28199219 -70.54148438 33.43507812 -69.6875 32.5625 C-66.09032849 29.03469543 -62.50669927 25.6996729 -58.5625 22.5625 C-54.55007918 19.3320161 -50.75427497 15.95724612 -47 12.4375 C-33.60049844 -0.01773411 -18.07882793 -10.8797737 0 0 Z M-22 34.75 C-22.969375 35.58015625 -23.93875 36.4103125 -24.9375 37.265625 C-28.505699 40.42772463 -32.01430456 43.65460001 -35.5065918 46.90014648 C-39.70588501 50.78611044 -44.07719732 54.42227182 -48.54296875 58 C-50.64303207 59.70943151 -52.63307179 61.48084187 -54.625 63.3125 C-66.99791726 73.66652633 -82.96046652 70.24254198 -97.91821289 68.91821289 C-100.9277797 68.646986 -103.93572425 68.36244109 -106.94311523 68.06811523 C-108.02090492 67.96459999 -108.02090492 67.96459999 -109.12046814 67.85899353 C-111.09048648 67.66864328 -113.0599161 67.47222776 -115.02929688 67.27539062 C-119.69612841 66.95171957 -124.32455294 66.94364057 -129 67 C-129.14145447 67.61894638 -129.28290894 68.23789276 -129.4286499 68.87559509 C-130.91052291 75.35135046 -132.40522993 81.82404926 -133.90722656 88.29516602 C-134.46517323 90.70652359 -135.01990767 93.11862688 -135.57128906 95.53149414 C-136.36708773 99.01131773 -137.17462448 102.48824374 -137.984375 105.96484375 C-138.22621521 107.03395493 -138.46805542 108.1030661 -138.71722412 109.20457458 C-141.56947619 121.33382859 -145.1404983 130.09833748 -155.91015625 136.8828125 C-158.28242718 138.3173129 -160.67163131 139.72178872 -163.0625 141.125 C-164.31670024 141.87192622 -165.57027665 142.6199009 -166.82324219 143.36889648 C-169.34056342 144.87161231 -171.86125536 146.36839092 -174.38525391 147.85986328 C-178.6405909 150.37572235 -182.87607009 152.92423402 -187.11108398 155.47412109 C-190.73659451 157.65633697 -194.3681207 159.82840396 -198 162 C-193.75778989 174.12613484 -188.66681828 185.8632766 -183.49536133 197.61376953 C-183.21507584 198.25286255 -182.93479034 198.89195557 -182.64601135 199.55041504 C-181.87483544 201.30762744 -181.10012856 203.06328901 -180.32519531 204.81884766 C-175.94697109 215.32884428 -175.12748962 224.95551603 -179.20751953 235.62548828 C-180.61862113 239.04461486 -182.09541485 242.4311929 -183.59912109 245.81054688 C-185.25430168 249.57898172 -186.84398956 253.37218294 -188.42578125 257.171875 C-188.720186 257.87872437 -189.01459076 258.58557373 -189.31791687 259.31384277 C-189.91411883 260.74533787 -190.51026445 262.17685643 -191.10635376 263.60839844 C-192.54226012 267.04951324 -193.98933044 270.48590671 -195.4375 273.921875 C-195.93121094 275.09331055 -196.42492187 276.26474609 -196.93359375 277.47167969 C-197.46146484 278.72319824 -197.46146484 278.72319824 -198 280 C-194.20786113 283.19347479 -190.20849878 285.78158279 -185.93359375 288.265625 C-184.92148582 288.86126251 -184.92148582 288.86126251 -183.88893127 289.46893311 C-181.74061252 290.73300882 -179.58942325 291.99207161 -177.4375 293.25 C-144.52791135 312.49524144 -144.52791135 312.49524144 -140.640625 327 C-140.42670609 327.78474701 -140.21278717 328.56949402 -139.99238586 329.37802124 C-137.47845912 338.73550803 -135.32816829 348.17665521 -133.1875 357.625 C-132.77707657 359.42196272 -132.3662709 361.21883817 -131.95507812 363.015625 C-130.96566805 367.34276256 -129.98134925 371.67102754 -129 376 C-120.83861094 376.19278872 -112.85071679 375.50967477 -104.74151611 374.71578979 C-65.93272154 370.97968379 -65.93272154 370.97968379 -55 379 C-51.57402158 381.84128653 -48.35152056 384.88050503 -45.16015625 387.98046875 C-41.53824974 391.49218644 -37.64099316 394.61257564 -33.703125 397.76171875 C-29.81081702 400.98468475 -26.16494124 404.44567545 -22.5078125 407.93359375 C-20.04761455 409.9607662 -18.00924818 411.01309603 -15 412 C-9.15503927 407.34013957 -3.46994144 402.59131516 2 397.5 C6.69549023 393.13266872 11.53599086 389.01131276 16.54296875 385 C18.64303207 383.29056849 20.63307179 381.51915813 22.625 379.6875 C34.99791726 369.33347367 50.96046652 372.75745802 65.91821289 374.08178711 C68.9277797 374.353014 71.93572425 374.63755891 74.94311523 374.93188477 C75.66164169 375.00089493 76.38016815 375.06990509 77.12046814 375.14100647 C79.09048648 375.33135672 81.0599161 375.52777224 83.02929688 375.72460938 C87.69612841 376.04828043 92.32455294 376.05635943 97 376 C97.14145447 375.38105362 97.28290894 374.76210724 97.4286499 374.12440491 C98.91052291 367.64864954 100.40522993 361.17595074 101.90722656 354.70483398 C102.46517323 352.29347641 103.01990767 349.88137312 103.57128906 347.46850586 C104.36708773 343.98868227 105.17462448 340.51175626 105.984375 337.03515625 C106.22621521 335.96604507 106.46805542 334.8969339 106.71722412 333.79542542 C109.56947619 321.66617141 113.1404983 312.90166252 123.91015625 306.1171875 C126.28242718 304.6826871 128.67163131 303.27821128 131.0625 301.875 C132.31670024 301.12807378 133.57027665 300.3800991 134.82324219 299.63110352 C137.34056342 298.12838769 139.86125536 296.63160908 142.38525391 295.14013672 C146.6405909 292.62427765 150.87607009 290.07576598 155.11108398 287.52587891 C158.73659451 285.34366303 162.3681207 283.17159604 166 281 C163.48098074 272.81765375 160.07875185 265.06944942 156.625 257.25 C141.41734137 222.76892644 141.41734137 222.76892644 147.21411133 207.33959961 C148.60585846 203.90508744 150.08445836 200.51527446 151.59912109 197.13330078 C153.54067175 192.79069689 155.42847022 188.42532965 157.31791687 184.05986023 C158.79640802 180.64491275 160.2806112 177.23284026 161.78198242 173.82788086 C162.06103928 173.19177383 162.34009613 172.55566681 162.62760925 171.90028381 C163.39403696 170.153732 164.1637181 168.40860893 164.93359375 166.66357422 C166.12389469 164.16873358 166.12389469 164.16873358 166 162 C163.8925431 160.58069229 161.798087 159.29662198 159.59765625 158.03515625 C158.93268631 157.64583923 158.26771637 157.25652222 157.58259583 156.85540771 C156.15418776 156.01958527 154.72397524 155.18684063 153.29217529 154.35684204 C149.59381568 152.20991852 145.91318441 150.03298575 142.23046875 147.859375 C141.50929871 147.43441238 140.78812866 147.00944977 140.04510498 146.5716095 C134.62058421 143.37342874 129.20674429 140.16393557 123.875 136.8125 C123.23957275 136.42908447 122.60414551 136.04566895 121.94946289 135.65063477 C110.93355581 128.61011917 108.85491713 117.98493576 106 106 C105.79695251 105.15997437 105.59390503 104.31994873 105.38470459 103.45446777 C103.93617128 97.43902489 102.55467802 91.40936288 101.1875 85.375 C100.77707657 83.57803728 100.3662709 81.78116183 99.95507812 79.984375 C98.96566805 75.65723744 97.98134925 71.32897246 97 67 C88.83861094 66.80721128 80.85071679 67.49032523 72.74151611 68.28421021 C33.93272154 72.02031621 33.93272154 72.02031621 23 64 C19.57259141 61.15752737 16.34889762 58.11693114 13.15625 55.015625 C10.37530942 52.31926291 7.46557675 49.85648085 4.4375 47.4375 C-0.24733636 43.69375247 -4.63967006 39.71427196 -8.94165039 35.54077148 C-14.27750536 30.48925243 -16.34842739 29.87215459 -22 34.75 Z " fill="#000000" transform="translate(272,42)"/>
<path d="M0 0 C3.97286765 3.04304756 6.22555906 6.33041859 8 11 C8.57973114 16.31420211 7.78441491 20.46893594 5 25 C1.72677452 28.8606418 -1.85729855 32.39441735 -5.45068359 35.95239258 C-6.53743292 37.0429285 -7.62332291 38.13432134 -8.7084198 39.22650146 C-11.64763493 42.17964133 -14.59922496 45.12011333 -17.55365324 48.05802369 C-20.64725932 51.13775017 -23.7306712 54.22765435 -26.81558228 57.31608582 C-31.99539624 62.49859899 -37.18322677 67.67297956 -42.37597656 72.8425293 C-48.37760323 78.81752708 -54.36667867 84.80488239 -60.34913194 90.79907304 C-66.10919324 96.56991494 -71.87770522 102.33223615 -77.65022659 108.09061241 C-80.10498068 110.53961129 -82.55679431 112.99149932 -85.00629807 115.44574928 C-87.89028851 118.33451371 -90.78162169 121.21572335 -93.67878151 124.09127808 C-94.74034914 125.14728422 -95.799385 126.20584254 -96.85567665 127.26712608 C-98.29848633 128.71589725 -99.75146649 130.15451851 -101.20492554 131.59260559 C-102.01497229 132.40022244 -102.82501904 133.2078393 -103.65961266 134.03992939 C-107.74027701 137.45747917 -111.5834957 138.49304932 -116.91940308 138.29797363 C-125.74560524 137.03392508 -131.63916806 129.91697247 -137.5546875 123.90625 C-138.5466412 122.91190731 -139.53934064 121.91830807 -140.53274536 120.92541504 C-142.6013465 118.85370277 -144.66310713 116.77550042 -146.71972656 114.69189453 C-149.35230129 112.02520877 -151.99798454 109.3720128 -154.64842033 106.72309113 C-156.69421481 104.67675247 -158.73475356 102.62524091 -160.77356339 100.57194519 C-161.74757829 99.5915826 -162.72279448 98.61241197 -163.69924545 97.63447571 C-165.06088744 96.26848687 -166.4151337 94.89513793 -167.76904297 93.52148438 C-168.53989227 92.74301147 -169.31074158 91.96453857 -170.10494995 91.16247559 C-174.34978543 86.31861772 -174.43474826 82.19456686 -174.3125 75.9140625 C-173.73544424 70.53301752 -171.25032213 68.05140725 -167.25 64.6875 C-161.83841807 61.87764015 -157.98319752 61.45297743 -152.22851562 63.0402832 C-147.1992519 65.04280727 -143.92231646 68.44429818 -140.21875 72.29296875 C-139.51979614 72.99899734 -138.82084229 73.70502594 -138.10070801 74.43244934 C-135.88837367 76.67259434 -133.69414151 78.9295473 -131.5 81.1875 C-129.99595745 82.71664231 -128.49076019 84.24464978 -126.984375 85.77148438 C-123.30944765 89.50130418 -119.65024964 93.24604456 -116 97 C-110.37173135 92.32578746 -105.2158519 87.31741855 -100.08642578 82.10473633 C-98.29624404 80.29489681 -96.50605191 78.48506757 -94.71585083 76.67524719 C-93.76628038 75.71345952 -92.81677909 74.75160357 -91.8673439 73.78968239 C-88.91208377 70.79676064 -85.95010178 67.81055231 -82.98654175 64.82585144 C-82.48448436 64.32015666 -81.98242697 63.81446189 -81.46515572 63.29344302 C-80.43927698 62.26015996 -79.41338227 61.22689275 -78.38747191 60.19364107 C-71.49803477 53.25438691 -64.61302779 46.31088936 -57.74658203 39.34887695 C-53.1006715 34.63840719 -48.44409825 29.93876945 -43.77507007 25.25120944 C-41.31032387 22.77582263 -38.85127542 20.29532704 -36.40524673 17.80143166 C-33.67727127 15.02025658 -30.92591412 12.2629474 -28.17236328 9.50708008 C-27.37415161 8.68572571 -26.57593994 7.86437134 -25.75354004 7.01812744 C-18.11325552 -0.55372589 -10.47255549 -4.03496008 0 0 Z " fill="#ffffff" transform="translate(350,206)"/>
</svg>
